<svg width="18" height="18" viewBox="0 0 18 18" fill="none" xmlns="http://www.w3.org/2000/svg">
<path d="M14.9761 6.59434H6.6383V4.75472C6.6383 4.1167 6.90029 3.50481 7.36664 3.05366C7.83298 2.60251 8.46549 2.34906 9.125 2.34906C10.3172 2.34906 11.3923 3.17618 11.6205 4.27288C11.6452 4.38169 11.713 4.47676 11.8095 4.53758C11.906 4.59841 12.0233 4.62011 12.1362 4.59801C12.249 4.57592 12.3484 4.51179 12.4128 4.41946C12.4773 4.32714 12.5016 4.21401 12.4806 4.10448C12.1639 2.59528 10.7531 1.5 9.125 1.5C8.23307 1.50112 7.37801 1.84439 6.74732 2.45453C6.11663 3.06466 5.7618 3.89186 5.76064 4.75472V6.59434H3.27394C3.00237 6.59434 2.74193 6.6987 2.5499 6.88447C2.35788 7.07024 2.25 7.32219 2.25 7.58491V15.5094C2.25 15.7721 2.35788 16.0241 2.5499 16.2099C2.74193 16.3956 3.00237 16.5 3.27394 16.5H14.9761C15.2476 16.5 15.5081 16.3956 15.7001 16.2099C15.8921 16.0241 16 15.7721 16 15.5094V7.58491C16 7.32219 15.8921 7.07024 15.7001 6.88447C15.5081 6.6987 15.2476 6.59434 14.9761 6.59434ZM15.1223 15.5094C15.1223 15.547 15.1069 15.583 15.0795 15.6095C15.0521 15.636 15.0149 15.6509 14.9761 15.6509H3.27394C3.23514 15.6509 3.19794 15.636 3.1705 15.6095C3.14307 15.583 3.12766 15.547 3.12766 15.5094V7.58491C3.12766 7.54737 3.14307 7.51138 3.1705 7.48484C3.19794 7.4583 3.23514 7.4434 3.27394 7.4434H14.9761C15.0149 7.4434 15.0521 7.4583 15.0795 7.48484C15.1069 7.51138 15.1223 7.54737 15.1223 7.58491V15.5094ZM9.125 8.85849C8.65936 8.85909 8.21013 9.02494 7.86248 9.32462C7.51482 9.62429 7.29291 10.037 7.2388 10.4844C7.1847 10.9318 7.30217 11.3828 7.56894 11.7521C7.83572 12.1213 8.23325 12.3829 8.68617 12.4875V13.8113C8.68617 13.9239 8.73241 14.0319 8.8147 14.1115C8.897 14.1911 9.00862 14.2358 9.125 14.2358C9.24139 14.2358 9.353 14.1911 9.4353 14.1115C9.5176 14.0319 9.56383 13.9239 9.56383 13.8113V12.4875C10.0168 12.3829 10.4143 12.1213 10.6811 11.7521C10.9478 11.3828 11.0653 10.9318 11.0112 10.4844C10.9571 10.037 10.7352 9.62429 10.3875 9.32462C10.0399 9.02494 9.59064 8.85909 9.125 8.85849ZM9.125 11.6887C8.92249 11.6887 8.72452 11.6306 8.55613 11.5217C8.38775 11.4129 8.25651 11.2582 8.17901 11.0772C8.10151 10.8962 8.08123 10.697 8.12074 10.5049C8.16025 10.3127 8.25777 10.1362 8.40097 9.99768C8.54417 9.85914 8.72662 9.7648 8.92524 9.72658C9.12387 9.68836 9.32975 9.70798 9.51685 9.78295C9.70395 9.85792 9.86386 9.98489 9.97637 10.1478C10.0889 10.3107 10.1489 10.5022 10.1489 10.6981C10.1489 10.9608 10.0411 11.2128 9.84903 11.3985C9.65701 11.5843 9.39657 11.6887 9.125 11.6887Z" fill="white"/>
</svg>
